<?xml version="1.0"?>
<svg xmlns="http://www.w3.org/2000/svg" xmlns:svg="http://www.w3.org/2000/svg" id="svg3404" height="512px" viewBox="0 0 16.933333 16.933333" width="512px"><g><path id="path1877" d="m4.2363916.52922288c-.9929389.056-2.104144.54924952-2.8623577 1.49654942-.75821117.9474-1.13220767 2.3579839-.58394337 4.1485841.55293947 1.8058997 2.15815327 3.9865316 4.07417057 5.8978306 1.9106859 1.914501 4.0890163 3.51837 5.8936969 4.07107 1.790483.5483 3.201311.174356 4.148585-.583944.947275-.7583 1.440458-1.869082 1.494999-2.813782.03001-.5199-.21136-.971083-.551905-1.324983s-.783764-.629527-1.223182-.848527c-.878834-.4381-1.760099-.6480231-1.760099-.6480231-.08947-.021-.183459.01028-.248563.07028l-1.332219 1.3317021c-1.105183-.5386-2.251395-1.4113081-3.2545812-2.4231081-1.0119307-1.0035777-1.8852753-2.150457-2.4241415-3.256132l1.3317008-1.3317016c.065191-.065.0918-.1594805.070281-.2490803 0 0-.20946-.8811993-.6475068-1.7600994-.2190192-.4395-.4946886-.8825811-.8485265-1.2231811-.3317213-.31930002-.7489401-.55165462-1.2764082-.55345462z" opacity=".98" font-variant-ligatures="normal" font-variant-position="normal" font-variant-caps="normal" font-variant-numeric="normal" font-variant-alternates="normal" font-feature-settings="normal" text-indent="0" text-align="start" text-decoration-line="none" text-decoration-style="solid" text-decoration-color="rgb(0,0,0)" text-transform="none" text-orientation="mixed" white-space="normal" shape-padding="0" isolation="auto" mix-blend-mode="normal" solid-color="rgb(0,0,0)" solid-opacity="1" vector-effect="none" paint-order="fill markers stroke" data-original="#000000" class="active-path" data-old_color="#000000" fill="#FFFFFF"/></g> </svg>
