<?xml version="1.0" encoding="iso-8859-1"?>
<!-- Generator: Adobe Illustrator 19.0.0, SVG Export Plug-In . SVG Version: 6.00 Build 0)  -->
<svg version="1.1" id="Capa_1" xmlns="http://www.w3.org/2000/svg" xmlns:xlink="http://www.w3.org/1999/xlink" x="0px" y="0px"
	 viewBox="0 0 468.293 468.293" style="enable-background:new 0 0 468.293 468.293;" xml:space="preserve">
<path style="fill:#44C4A1;" d="M449.776,77.487c0-16.816-14.063-30.449-31.374-30.449H49.875
	c-17.319-0.008-31.359,13.624-31.359,30.449V250.09h431.26V77.487z"/>
<path style="fill:#E56353;" d="M18.516,250.09v187.754c0,16.817,14.039,30.449,31.359,30.449h368.527
	c17.311,0,31.374-13.632,31.374-30.449V250.09H18.516z"/>
<ellipse style="fill:#3A556A;" cx="375.696" cy="86.928" rx="16.784" ry="16.303"/>
<path style="fill:#D5D6DB;" d="M379.228,12.873c0.075,0.024,0.151,0.041,0.284,0.064c-0.127-0.024-0.214-0.046-0.307-0.064
	C379.217,12.873,379.228,12.873,379.228,12.873z M400.257,15.1c-3.6-7.106-9.737-14.752-20.732-15.093
	c-10.624-0.337-10.758,12.125-0.505,12.85c0.011,0.011,0.041,0.011,0.046,0.017c-0.29,0.041,2.383,1.797,1.565,0.951
	c2.446,2.492,3.727,5.025,4.933,7.842c3.501,8.155,4.474,16.843,4.532,25.386h16.757C406.783,36.347,405.345,25.155,400.257,15.1z"
	/>
<ellipse style="fill:#3A556A;" cx="294.444" cy="86.928" rx="16.784" ry="16.303"/>
<path style="fill:#D5D6DB;" d="M297.951,12.873c0.076,0.024,0.151,0.041,0.284,0.064c-0.127-0.024-0.214-0.046-0.307-0.064
	C297.94,12.873,297.951,12.873,297.951,12.873z M318.98,15.1c-3.6-7.106-9.737-14.752-20.732-15.093
	c-10.624-0.337-10.758,12.125-0.505,12.85c0.011,0.011,0.041,0.011,0.046,0.017c-0.29,0.041,2.383,1.797,1.565,0.951
	c2.446,2.492,3.727,5.025,4.933,7.842c3.501,8.155,4.474,16.843,4.532,25.386h16.757C325.506,36.347,324.068,25.155,318.98,15.1z"/>
<ellipse style="fill:#3A556A;" cx="213.167" cy="86.928" rx="16.784" ry="16.303"/>
<path style="fill:#D5D6DB;" d="M216.674,12.873c0.075,0.024,0.151,0.041,0.284,0.064c-0.127-0.024-0.214-0.046-0.307-0.064
	C216.662,12.873,216.674,12.873,216.674,12.873z M237.702,15.1c-3.6-7.106-9.737-14.752-20.732-15.093
	c-10.624-0.337-10.758,12.125-0.505,12.85c0.011,0.011,0.041,0.011,0.046,0.017c-0.29,0.041,2.383,1.797,1.565,0.951
	c2.446,2.492,3.727,5.025,4.933,7.842c3.501,8.155,4.474,16.843,4.532,25.386h16.757C244.229,36.347,242.791,25.155,237.702,15.1z"
	/>
<ellipse style="fill:#3A556A;" cx="112.403" cy="86.928" rx="16.784" ry="16.303"/>
<path style="fill:#D5D6DB;" d="M115.909,12.873c0.075,0.024,0.151,0.041,0.284,0.064c-0.127-0.024-0.214-0.046-0.307-0.064
	C115.898,12.873,115.909,12.873,115.909,12.873z M136.938,15.1c-3.6-7.106-9.737-14.752-20.732-15.093
	c-10.624-0.337-10.758,12.125-0.505,12.85c0.011,0.011,0.041,0.011,0.046,0.017c-0.29,0.041,2.383,1.797,1.565,0.951
	c2.446,2.492,3.727,5.025,4.933,7.842c3.501,8.155,4.474,16.843,4.532,25.386h16.757C143.464,36.347,142.026,25.155,136.938,15.1z"
	/>
<g>
	<path style="fill:#64798A;" d="M141.325,185.651v1.916c0.153,6.439,0.827,10.969,2.046,13.585c1.218,2.614,3.841,3.921,7.844,3.921
		c3.979,0,6.593-1.429,7.877-4.295c0.755-1.689,1.137-4.555,1.137-8.582v-58.244h17.929v57.959c0,7.08-1.234,12.691-3.703,16.832
		c-4.181,7.008-11.692,10.508-22.581,10.508c-10.889,0-18.189-2.843-21.908-8.502c-3.711-5.668-5.578-13.398-5.578-23.19v-1.916
		h16.939V185.651z"/>
	<path style="fill:#64798A;" d="M197.116,133.96h18.221v51.139c0,5.725,0.69,9.907,2.079,12.529
		c2.169,4.669,6.885,6.999,14.153,6.999c7.218,0,11.929-2.338,14.088-6.999c1.389-2.63,2.087-6.813,2.087-12.529V133.96h18.213
		v51.18c0,8.851-1.421,15.744-4.23,20.672c-5.278,9.038-15.338,13.561-30.165,13.561c-14.827,0-24.912-4.522-30.206-13.561
		c-2.826-4.928-4.246-11.822-4.246-20.672v-51.18H197.116z"/>
	<polygon style="fill:#64798A;" points="283.178,133.96 301.083,133.96 301.083,202.264 343.906,202.264 343.906,217.237 
		283.178,217.237 	"/>
</g>
<g>
	<path style="fill:#FCD462;" d="M116.538,326.164v-22.419c10.167-0.455,17.28-1.144,21.348-2.079
		c6.472-1.462,11.757-4.384,15.809-8.769c2.794-3.004,4.889-7.007,6.317-12.009c0.844-2.996,1.252-5.237,1.252-6.707h26.948v167.471
		h-33.055V326.164H116.538z"/>
	<path style="fill:#FCD462;" d="M351.729,302.13c-4.822,4.863-11.578,13.503-20.178,25.926
		c-8.631,12.44-15.858,25.278-21.663,38.522c-4.628,10.393-8.794,23.108-12.488,38.105c-3.703,15.022-5.563,27.34-5.563,36.962
		h-33.526c0.99-30.02,10.644-61.248,29.004-93.662c11.888-20.097,21.818-34.111,29.832-42.045h-81.815l0.455-29.564h115.943V302.13z
		"/>
</g>
<g>
	<path style="fill:#64798A;" d="M375.716,81.226c-1.93-0.058,1.913,0.372,0.018-0.041c1.958,0.424,0.469,0.128-0.128-0.15
		c2.064,0.974-1.988-1.751-0.985-0.742c-2.457-2.498-3.727-5.019-4.933-7.848c-3.507-8.155-4.486-16.843-4.55-25.386
		c-0.046-8.579,1.211-17.174,4.55-25.387c1.108-2.713,2.342-4.874,4.463-7.332c0.29-0.331,0.748-0.748,2.104-1.675
		c-1.472,0.979-0.011,0.122,0.412-0.041c-1.113,0.342-1.252,0.406-0.383,0.197c-1.309,0.092-1.501,0.11-0.568,0.075
		c10.77-0.337,10.803-13.227,0-12.89C364.576,0.348,358.78,8.01,354.995,15.1c-5.286,9.905-6.526,21.364-6.602,31.96
		c-0.081,10.67,1.536,21.961,6.602,31.965c3.606,7.105,9.726,14.756,20.721,15.099C386.526,94.453,386.491,81.563,375.716,81.226z"
		/>
	<path style="fill:#64798A;" d="M294.439,81.226c-1.93-0.058,1.913,0.372,0.018-0.041c1.958,0.424,0.469,0.128-0.128-0.15
		c2.064,0.974-1.988-1.751-0.985-0.742c-2.457-2.498-3.727-5.019-4.933-7.848c-3.507-8.155-4.486-16.843-4.55-25.386
		c-0.046-8.579,1.211-17.174,4.55-25.387c1.108-2.713,2.342-4.874,4.463-7.332c0.29-0.331,0.748-0.748,2.104-1.675
		c-1.472,0.979-0.011,0.122,0.412-0.041c-1.113,0.342-1.252,0.406-0.383,0.197c-1.309,0.092-1.501,0.11-0.568,0.075
		c10.77-0.337,10.803-13.227,0-12.89c-11.14,0.342-16.936,8.004-20.721,15.093c-5.286,9.905-6.526,21.364-6.602,31.96
		c-0.081,10.67,1.536,21.961,6.602,31.965c3.606,7.105,9.726,14.756,20.721,15.099C305.249,94.453,305.214,81.563,294.439,81.226z"
		/>
	<path style="fill:#64798A;" d="M213.162,81.226c-1.93-0.058,1.913,0.372,0.018-0.041c1.958,0.424,0.469,0.128-0.128-0.15
		c2.064,0.974-1.988-1.751-0.985-0.742c-2.457-2.498-3.727-5.019-4.933-7.848c-3.507-8.155-4.486-16.843-4.55-25.386
		c-0.046-8.579,1.211-17.174,4.55-25.387c1.108-2.713,2.342-4.874,4.463-7.332c0.29-0.331,0.748-0.748,2.104-1.675
		c-1.472,0.979-0.011,0.122,0.412-0.041c-1.113,0.342-1.252,0.406-0.383,0.197c-1.309,0.092-1.501,0.11-0.568,0.075
		c10.77-0.337,10.803-13.227,0-12.89C202.021,0.348,196.225,8.01,192.44,15.1c-5.286,9.905-6.526,21.364-6.602,31.96
		c-0.081,10.67,1.536,21.961,6.602,31.965c3.606,7.105,9.726,14.756,20.721,15.099C223.972,94.453,223.937,81.563,213.162,81.226z"
		/>
	<path style="fill:#64798A;" d="M112.397,81.226c-1.93-0.058,1.913,0.372,0.018-0.041c1.958,0.424,0.469,0.128-0.128-0.15
		c2.064,0.974-1.988-1.751-0.985-0.742c-2.457-2.498-3.727-5.019-4.933-7.848c-3.507-8.155-4.486-16.843-4.55-25.386
		c-0.046-8.579,1.211-17.174,4.55-25.387c1.108-2.713,2.342-4.874,4.463-7.332c0.29-0.331,0.748-0.748,2.104-1.675
		c-1.472,0.979-0.011,0.122,0.412-0.041c-1.113,0.342-1.252,0.406-0.383,0.197c-1.309,0.092-1.501,0.11-0.568,0.075
		c10.77-0.337,10.803-13.227,0-12.89C101.256,0.348,95.46,8.01,91.676,15.1c-5.286,9.905-6.526,21.364-6.602,31.96
		c-0.081,10.67,1.536,21.961,6.602,31.965c3.606,7.105,9.726,14.756,20.721,15.099C123.207,94.453,123.172,81.563,112.397,81.226z"
		/>
</g>
<g>
</g>
<g>
</g>
<g>
</g>
<g>
</g>
<g>
</g>
<g>
</g>
<g>
</g>
<g>
</g>
<g>
</g>
<g>
</g>
<g>
</g>
<g>
</g>
<g>
</g>
<g>
</g>
<g>
</g>
</svg>
