<?xml version="1.0" encoding="iso-8859-1"?>
<!-- Generator: Adobe Illustrator 19.0.0, SVG Export Plug-In . SVG Version: 6.00 Build 0)  -->
<svg version="1.1" id="Capa_1" xmlns="http://www.w3.org/2000/svg" xmlns:xlink="http://www.w3.org/1999/xlink" x="0px" y="0px"
	 viewBox="0 0 468.293 468.293" style="enable-background:new 0 0 468.293 468.293;" xml:space="preserve">
<path style="fill:#FCD462;" d="M468.293,232.164v96.19c0,6.99-5.667,12.657-12.657,12.657H12.657C5.667,341.01,0,335.343,0,328.353
	v-87.636c0-5.168,3.142-9.817,7.937-11.744l92.683-37.247l57.009-104.378c3.18-6.528,9.806-10.671,17.068-10.671h205.341
	c7.459,0,14.227,4.368,17.3,11.165L468.293,232.164z"/>
<path style="fill:#E56353;" d="M24.943,310.46H0v-51.887h24.943c6.897,0,12.488,5.591,12.488,12.488v26.912
	C37.431,304.869,31.84,310.46,24.943,310.46z"/>
<g>
	<path style="fill:#EBF0F3;" d="M425.626,216.518H313.444c-3.448,0-6.244-2.795-6.244-6.244v-95.72c0-3.448,2.795-6.244,6.244-6.244
		h58.443l0.375,0.688l12.426,20.666l46.297,77.405C433.474,211.231,430.475,216.518,425.626,216.518z"/>
	<path style="fill:#EBF0F3;" d="M288.219,114.554v95.72c0,3.448-2.796,6.244-6.244,6.244H134.26c-4.737,0-7.748-5.068-5.485-9.228
		l52.085-95.72c1.093-2.009,3.197-3.26,5.485-3.26h95.63C285.423,108.311,288.219,111.106,288.219,114.554z"/>
</g>
<path style="fill:#F6C358;" d="M441.524,341.01H302.302c0-38.476,31.198-69.611,69.611-69.611
	C410.389,271.399,441.524,302.533,441.524,341.01z"/>
<circle style="fill:#3A556A;" cx="371.949" cy="340.99" r="50.626"/>
<circle style="fill:#D5D6DB;" cx="371.949" cy="340.99" r="28.478"/>
<path style="fill:#F6C358;" d="M183.336,341.01H44.114c0-38.476,31.198-69.611,69.611-69.611
	C152.201,271.399,183.336,302.533,183.336,341.01z"/>
<circle style="fill:#3A556A;" cx="113.751" cy="340.99" r="50.626"/>
<g>
	<circle style="fill:#D5D6DB;" cx="113.751" cy="340.99" r="28.478"/>
	<polygon style="fill:#D5D6DB;" points="236.644,108.311 182.947,216.518 165.214,216.518 218.911,108.311 	"/>
</g>
<g>
	<polygon style="fill:#E1E6E9;" points="277.292,108.311 223.532,216.518 205.799,216.518 259.559,108.311 	"/>
	<polygon style="fill:#E1E6E9;" points="384.687,129.664 341.479,216.518 318.814,216.518 372.261,108.998 	"/>
</g>
<path style="fill:#27A2DB;" d="M468.293,297.446h-10.374c-3.448,0-6.244-2.796-6.244-6.244v-33.448c0-3.448,2.796-6.244,6.244-6.244
	h10.374V297.446z"/>
<g>
</g>
<g>
</g>
<g>
</g>
<g>
</g>
<g>
</g>
<g>
</g>
<g>
</g>
<g>
</g>
<g>
</g>
<g>
</g>
<g>
</g>
<g>
</g>
<g>
</g>
<g>
</g>
<g>
</g>
</svg>
